# Blender v3.2.2 OBJ File: ''
# www.blender.org
mtllib arrow.mtl
o Cube_Cube.001
v 0.205667 -0.205667 0.205667
v 0.205667 0.205667 0.205667
v -0.205667 -0.205667 0.205667
v -0.205667 0.205667 0.205667
v 0.205666 -0.205667 -1.649332
v 0.205666 0.205667 -1.649332
v -0.205667 -0.205667 -1.649332
v -0.205667 0.205667 -1.649332
v -0.366367 0.366367 -1.714493
v -0.366367 -0.366367 -1.714493
v 0.366367 -0.366367 -1.714493
v 0.366367 0.366367 -1.714493
v -0.011266 0.011266 -2.473599
v -0.011266 -0.011266 -2.473599
v 0.011266 -0.011266 -2.473599
v 0.011266 0.011266 -2.473599
vt 0.375000 0.000000
vt 0.625000 0.000000
vt 0.625000 0.250000
vt 0.375000 0.250000
vt 0.625000 0.500000
vt 0.375000 0.500000
vt 0.625000 0.750000
vt 0.625000 0.750000
vt 0.625000 0.500000
vt 0.375000 0.750000
vt 0.625000 1.000000
vt 0.375000 1.000000
vt 0.125000 0.500000
vt 0.125000 0.750000
vt 0.875000 0.500000
vt 0.875000 0.750000
vt 0.625000 0.750000
vt 0.625000 0.500000
vt 0.375000 0.500000
vt 0.375000 0.750000
vt 0.375000 0.500000
vt 0.375000 0.750000
vn 0.0000 0.0000 1.0000
vn -1.0000 0.0000 0.0000
vn 0.0000 0.3758 0.9267
vn 1.0000 0.0000 -0.0000
vn 0.0000 -1.0000 0.0000
vn 0.0000 1.0000 0.0000
vn 0.0000 0.9058 -0.4237
vn -0.3758 0.0000 0.9267
vn 0.3758 0.0000 0.9267
vn 0.0000 -0.3758 0.9267
vn 0.0000 0.0000 -1.0000
vn -0.9058 0.0000 -0.4237
vn 0.9058 0.0000 -0.4237
vn 0.0000 -0.9058 -0.4237
usemtl None
s off
f 1/1/1 2/2/1 4/3/1 3/4/1
f 3/4/2 4/3/2 8/5/2 7/6/2
f 8/5/3 6/7/3 12/8/3 9/9/3
f 5/10/4 6/7/4 2/11/4 1/12/4
f 3/13/5 7/6/5 5/10/5 1/14/5
f 8/5/6 4/15/6 2/16/6 6/7/6
f 9/9/7 12/8/7 16/17/7 13/18/7
f 7/6/8 8/5/8 9/9/8 10/19/8
f 6/7/9 5/10/9 11/20/9 12/8/9
f 5/10/10 7/6/10 10/19/10 11/20/10
f 14/21/11 13/18/11 16/17/11 15/22/11
f 10/19/12 9/9/12 13/18/12 14/21/12
f 12/8/13 11/20/13 15/22/13 16/17/13
f 11/20/14 10/19/14 14/21/14 15/22/14
