<svg xmlns="http://www.w3.org/2000/svg" width="16" height="16" viewBox="0 0 16 16">
  <path fill="#42526E" d="M4.2212247,0.500020552 C3.80046778,0.497819478 3.3962319,0.672499967 3.09803992,0.985397886 C2.79984794,1.2982958 2.63230815,1.72358925 2.63252403,2.16709193 L2.63252403,10.8304116 C2.63252403,11.7486667 3.34371717,12.4999833 4.2212247,12.4999833 L10.4112959,12.4999833 C10.8324008,12.5019673 11.2368753,12.3268717 11.53509,12.0134797 C11.8333048,11.7000878 12.0006333,11.2742795 11.9999982,10.8304116 L11.9999982,2.1679267 C11.9969412,1.24550886 11.2864222,0.499575811 10.4112959,0.500020552 L4.2212247,0.500020552 Z M1.58870209,1.79058638 C1.16780781,1.78838441 0.763451312,1.96317924 0.465236322,2.276258 C0.167021333,2.58933676 -0.00042540011,3.01484524 8.11656086e-07,3.45849254 L8.11656086e-07,9.53901099 C8.11656086e-07,10.4572661 0.711194558,11.2085658 1.58870209,11.2085658 L1.92925105,11.2085658 L1.92925105,9.91466081 L1.22439391,9.91466081 L1.22439391,3.08117316 L1.92925105,3.08117316 L1.92925105,1.7914421 L1.58870209,1.79058638 Z M3.8577085,1.79060733 L10.7748121,1.79060733 L10.7748121,11.2085658 L3.8577085,11.2085658 L3.8577085,1.79060733 Z M5.47096017,3.08200794 C5.13496705,3.08522072 4.86457055,3.37396158 4.86587315,3.72812563 C4.86462706,3.89836989 4.92774062,4.0621352 5.04128177,4.1832226 C5.15482291,4.30431001 5.30944142,4.37274786 5.47096017,4.37340855 L9.35955403,4.37340855 C9.6958571,4.37111088 9.96708582,4.08261078 9.96622496,3.72812563 C9.96747148,3.55751577 9.90416605,3.39341151 9.79030505,3.27214336 C9.67644405,3.15087521 9.52142031,3.08244704 9.35955403,3.08200794 L5.47096017,3.08200794 Z M5.47096017,5.01869146 C5.13496705,5.02190425 4.86457055,5.31064511 4.86587315,5.66480916 C4.86462706,5.83505342 4.92774062,5.99881873 5.04128177,6.11990613 C5.15482291,6.24099354 5.30944142,6.30943139 5.47096017,6.31009207 L9.35955403,6.31009207 C9.6958571,6.30779441 9.96708582,6.0192943 9.96621928,5.66480916 C9.96725982,5.49434341 9.90386077,5.33045425 9.79002273,5.2093672 C9.67618469,5.08828014 9.52128207,5.01996655 9.35955403,5.01952624 L5.47096017,5.01869146 Z M5.48363176,6.95537499 C5.14431052,6.95537499 4.86850196,7.24384306 4.86589179,7.60149268 L4.86430784,7.60149268 C4.86509982,7.96044696 5.1430828,8.25011471 5.48363176,8.24761038 L6.69931232,8.24761038 C7.03832472,8.24716282 7.31365279,7.95881707 7.31626031,7.60149268 C7.3158437,7.42932843 7.25034009,7.26444 7.13425028,7.14332942 C7.01816048,7.02221883 6.86106057,6.95487632 6.69772837,6.95620977 L5.48363176,6.95537499 Z" transform="translate(2 1.5)"/>
</svg>
