# Blender v3.2.2 OBJ File: 'thegodotboysgame.blend'
# www.blender.org
mtllib thegodotboysgame.mtl
o Cube_Cube.001
v -4.010436 -0.286107 1.000000
v -4.010436 0.286107 1.000000
v -4.010436 -0.286107 -1.000000
v -4.010436 0.286107 -1.000000
v 4.010436 -0.286107 4.533887
v 4.010436 0.286107 4.533887
v 4.010436 -0.286107 -4.533887
v 4.010436 0.286107 -4.533887
v -4.443206 -0.193060 0.000000
v -3.402563 -0.520865 0.741647
v 3.577666 -0.193060 0.000000
v -4.443206 -0.765274 0.000000
v 3.577666 -0.765274 0.000000
v -3.402563 0.520865 0.741647
v -3.415007 -0.244797 -0.836816
v -3.402563 0.520865 -0.741647
v -1.919268 -0.520865 0.741647
v -1.919268 0.520865 0.741647
v -1.931713 -0.244797 -0.836816
v -1.919268 0.520865 -0.741647
vt 0.375000 0.125000
vt 0.625000 0.125000
vt 0.625000 0.250000
vt 0.375000 0.250000
vt 0.625000 0.500000
vt 0.375000 0.500000
vt 0.375000 0.625000
vt 0.625000 0.625000
vt 0.625000 0.750000
vt 0.375000 0.750000
vt 0.625000 1.000000
vt 0.375000 1.000000
vt 0.125000 0.625000
vt 0.125000 0.750000
vt 0.875000 0.625000
vt 0.875000 0.750000
vt 0.125000 0.500000
vt 0.375000 0.000000
vt 0.625000 0.000000
vt 0.875000 0.500000
vt 0.375000 0.000000
vt 0.625000 0.000000
vt 0.625000 0.250000
vt 0.375000 0.250000
vt 0.625000 0.500000
vt 0.375000 0.500000
vt 0.625000 0.750000
vt 0.375000 0.750000
vt 0.625000 1.000000
vt 0.375000 1.000000
vt 0.125000 0.500000
vt 0.125000 0.750000
vt 0.875000 0.500000
vt 0.875000 0.750000
vn -0.9177 0.0000 -0.3972
vn -0.4032 0.0000 -0.9151
vn 0.9955 0.0000 -0.0950
vn -0.4032 0.0000 0.9151
vn -0.0389 -0.9836 0.1764
vn 0.0389 0.9836 -0.1764
vn -0.0389 -0.9836 -0.1764
vn -0.9177 0.0000 0.3972
vn 0.9955 0.0000 0.0950
vn 0.0389 0.9836 0.1764
vn -1.0000 0.0066 0.0047
vn 0.0000 0.1233 -0.9924
vn 1.0000 -0.0066 -0.0047
vn 0.0000 0.0000 1.0000
vn 0.0000 -0.9850 -0.1723
vn 0.0000 1.0000 0.0000
usemtl None
s off
f 12/1/1 9/2/1 4/3/1 3/4/1
f 3/4/2 4/3/2 8/5/2 7/6/2
f 13/7/3 11/8/3 6/9/3 5/10/3
f 5/10/4 6/9/4 2/11/4 1/12/4
f 12/13/5 13/7/5 5/10/5 1/14/5
f 11/8/6 9/15/6 2/16/6 6/9/6
f 3/17/7 7/6/7 13/7/7 12/13/7
f 1/18/8 2/19/8 9/2/8 12/1/8
f 7/6/9 8/5/9 11/8/9 13/7/9
f 8/5/10 4/20/10 9/15/10 11/8/10
f 10/21/11 14/22/11 16/23/11 15/24/11
f 15/24/12 16/23/12 20/25/12 19/26/12
f 19/26/13 20/25/13 18/27/13 17/28/13
f 17/28/14 18/27/14 14/29/14 10/30/14
f 15/31/15 19/26/15 17/28/15 10/32/15
f 20/25/16 16/33/16 14/34/16 18/27/16
